<?xml version="1.0" standalone="no"?>
<!DOCTYPE svg PUBLIC "-//W3C//DTD SVG 20010904//EN"
 "http://www.w3.org/TR/2001/REC-SVG-20010904/DTD/svg10.dtd">
<svg version="1.0" xmlns="http://www.w3.org/2000/svg"
 width="512.000000pt" height="512.000000pt" viewBox="0 0 512.000000 512.000000"
 preserveAspectRatio="xMidYMid meet">
<metadata>
Created by potrace 1.14, written by Peter Selinger 2001-2017
</metadata>
<g transform="translate(0.000000,512.000000) scale(0.100000,-0.100000)"
fill="#000000" stroke="none">
<path d="M1413 5078 c-18 -13 -37 -33 -44 -45 -7 -12 -16 -20 -21 -17 -4 3 -8
-2 -8 -10 0 -9 -4 -16 -10 -16 -5 0 -10 -6 -10 -14 0 -8 -3 -16 -8 -18 -11 -4
-72 -103 -72 -116 0 -5 -4 -12 -10 -14 -10 -3 -107 -219 -115 -255 -2 -10 -8
-33 -14 -50 -5 -18 -8 -33 -5 -33 3 0 0 -8 -5 -18 -18 -33 -68 -25 -62 11 0 4
-3 7 -8 7 -8 0 -25 69 -24 103 0 9 -4 17 -8 17 -5 0 -8 3 -7 8 1 5 -9 66 -17
102 -1 3 -5 20 -9 38 -11 47 -21 127 -30 239 -3 29 -11 61 -18 72 -25 35 -89
-6 -146 -94 -15 -22 -25 -43 -24 -47 1 -5 -3 -8 -9 -8 -5 0 -8 -4 -4 -9 3 -5
1 -12 -4 -15 -10 -7 -23 -65 -26 -120 -2 -40 13 -107 35 -161 7 -16 13 -33 12
-37 -1 -5 3 -8 8 -8 6 0 10 -7 10 -15 0 -8 5 -15 10 -15 6 0 10 -5 10 -11 0
-11 50 -82 63 -87 4 -2 7 -11 7 -20 0 -12 -16 -23 -48 -34 -26 -10 -56 -25
-67 -35 -11 -10 -32 -27 -46 -38 -14 -11 -27 -24 -29 -30 -4 -14 -53 -79 -62
-83 -5 -2 -8 -8 -8 -13 0 -21 -110 -149 -129 -149 -6 0 -11 -5 -11 -12 0 -6
-3 -8 -7 -5 -3 4 -11 1 -17 -7 -6 -7 -45 -39 -86 -72 -125 -98 -250 -214 -250
-232 0 -5 -16 -20 -36 -31 -33 -20 -35 -24 -30 -61 13 -95 120 -229 193 -242
5 -1 23 -7 42 -15 51 -22 147 -17 245 11 47 14 90 27 95 31 11 6 197 64 226
70 11 2 22 4 25 5 14 6 47 -4 62 -17 16 -14 17 -44 3 -113 -3 -14 -7 -34 -9
-45 -2 -11 -16 -69 -30 -130 -40 -171 -60 -305 -59 -405 0 -67 14 -209 23
-240 6 -19 13 -48 16 -65 3 -16 14 -70 25 -119 l20 -90 -34 -30 c-18 -17 -59
-53 -91 -81 -81 -70 -126 -157 -130 -250 -1 -16 -5 -36 -9 -42 -5 -8 -3 -13 4
-13 8 0 9 -4 0 -13 -7 -10 -7 -17 0 -24 8 -8 8 -13 0 -17 -7 -4 -7 -15 -1 -30
5 -13 7 -26 4 -28 -8 -9 26 -78 39 -79 6 -1 23 -3 37 -5 34 -4 87 22 106 51
10 16 17 52 18 104 2 53 8 88 19 105 19 28 78 76 95 76 7 0 12 6 13 13 1 14
41 -75 49 -108 1 -5 12 -28 23 -50 12 -22 20 -44 18 -49 -1 -5 2 -12 6 -15 7
-5 29 -43 72 -125 9 -17 24 -39 34 -50 9 -11 17 -23 17 -28 0 -4 8 -16 18 -27
9 -10 27 -31 39 -47 30 -40 154 -164 165 -164 4 0 16 -8 26 -18 26 -24 61 -52
66 -52 2 0 32 -16 66 -35 34 -19 68 -35 75 -35 7 0 15 -3 17 -7 3 -8 85 -41
118 -48 8 -2 17 -4 20 -5 3 -1 10 -3 15 -4 32 -4 52 -29 64 -78 20 -79 82
-261 92 -274 5 -7 9 -16 7 -20 -3 -12 36 -98 84 -187 110 -206 133 -278 100
-316 -18 -21 -72 -39 -109 -36 -13 1 -23 -1 -23 -5 0 -4 -11 -6 -25 -5 -14 2
-25 0 -25 -3 0 -4 -24 -8 -53 -9 -49 -2 -87 -5 -217 -19 -30 -3 -73 -7 -95 -9
-22 -2 -40 -4 -40 -5 0 -1 -18 -4 -40 -6 -40 -3 -90 -11 -90 -14 0 -1 -11 -4
-25 -6 -43 -8 -90 -46 -90 -74 0 -55 -3 -55 597 -58 546 -2 553 -2 573 18 27
27 24 87 -8 160 -17 38 -25 74 -25 115 -1 66 -2 64 43 255 18 74 34 143 35
153 8 38 18 165 17 216 -1 67 2 72 36 61 15 -5 41 -11 57 -14 17 -2 42 -9 56
-14 15 -6 30 -8 33 -5 3 4 6 1 6 -5 0 -7 6 -12 14 -12 7 0 26 -12 41 -27 33
-34 105 -129 105 -140 0 -5 9 -14 20 -21 12 -7 18 -17 15 -22 -3 -6 -2 -10 2
-10 5 0 33 -32 63 -72 69 -90 304 -328 325 -328 3 0 13 -7 21 -15 69 -69 321
-206 424 -230 3 -1 23 -6 45 -13 110 -30 358 -39 475 -17 93 18 242 65 252 79
4 6 8 7 8 3 0 -5 13 1 29 12 16 12 32 21 36 21 6 0 86 53 113 75 41 33 122
116 122 124 0 5 10 17 22 25 12 9 19 16 15 16 -4 0 11 23 33 51 22 28 40 55
40 60 0 17 3 24 15 34 6 6 24 44 40 85 16 41 32 80 36 85 7 10 12 54 10 87 -1
23 -39 32 -74 19 -16 -6 -54 -37 -85 -69 -31 -32 -77 -72 -102 -89 -56 -38
-130 -76 -130 -67 0 4 -9 -1 -21 -12 -12 -10 -23 -18 -25 -16 -2 1 -5 2 -6 1
-2 0 -11 -2 -22 -4 -10 -2 -39 -8 -65 -14 -25 -6 -59 -14 -76 -17 -16 -4 -95
-8 -175 -10 -143 -3 -237 9 -306 38 -16 6 -31 12 -34 13 -22 7 -60 30 -60 37
0 4 -5 8 -12 8 -12 0 -20 6 -87 72 -83 82 -160 218 -227 404 -20 54 -37 104
-38 109 -1 6 -5 16 -9 22 -5 7 -5 13 -1 13 3 0 1 7 -6 15 -7 8 -9 15 -6 15 4
0 2 9 -4 21 -7 11 -14 32 -16 46 -6 30 -70 229 -84 258 -5 11 -21 52 -35 90
-14 39 -32 83 -40 98 -8 16 -15 35 -15 43 0 8 -4 14 -10 14 -5 0 -10 5 -10 11
0 16 -72 163 -82 167 -4 2 -6 8 -2 13 3 5 0 9 -6 9 -6 0 -9 4 -6 9 3 5 -1 14
-9 21 -8 7 -15 19 -15 26 0 8 -4 14 -9 14 -5 0 -14 14 -21 30 -7 16 -16 30
-21 30 -5 0 -9 5 -9 11 0 12 -60 103 -72 107 -4 2 -8 9 -8 15 0 7 -13 26 -28
44 -15 17 -38 47 -52 65 -29 39 -264 278 -274 278 -3 0 -19 11 -34 24 -99 89
-309 209 -477 273 -111 43 -119 46 -125 48 -20 5 -147 49 -155 54 -5 3 -16 7
-22 8 -28 6 -39 10 -65 23 -16 7 -28 17 -28 22 0 5 -4 7 -8 4 -13 -8 -69 54
-82 89 -7 18 -10 78 -9 150 5 227 3 520 -4 560 -11 63 -24 130 -27 130 -1 0
-3 7 -5 16 -2 14 -20 52 -79 166 -6 13 -14 23 -18 23 -5 0 -8 4 -8 10 0 14
-48 59 -106 100 -47 33 -49 36 -34 53 9 9 23 29 31 44 8 16 17 30 20 33 4 3
19 30 35 60 15 30 31 57 36 60 4 3 10 17 12 30 2 14 5 25 7 25 1 0 3 16 4 36
1 19 4 40 7 45 5 9 3 104 -5 184 -6 56 -40 135 -62 144 -24 9 -27 8 -62 -16z"/>
</g>
</svg>
